<?xml version="1.0" encoding="iso-8859-1"?>
<!-- Uploaded to: SVGRepo, www.svgrepo.com, Transformed by: SVGRepo Tools -->
<svg fill="#000000" height="800px" width="800px" version="1.1" id="Layer_1" xmlns="http://www.w3.org/2000/svg" xmlns:xlink="http://www.w3.org/1999/xlink" 
	 viewBox="0 0 491.52 491.52" xml:space="preserve">
<g>
	<g>
		<path d="M420.635,158.89c3.07-11.97,7.195-30.945,6.44-44.03C423.425,52.03,370.49,0.505,309.07,0.005
			c-0.32,0-0.635-0.005-0.955-0.005c-49.655,0-93.91,32.04-111.31,78.57C178.62,63.415,155.135,56,131.24,58.4
			c-34.04,3.385-63.705,27.41-75.57,61.21c-5.285,15.045-6.575,30.5-3.87,46.06C20.485,181.145,0,213.97,0,250
			c0,52.01,38.76,89.76,92.16,89.76h40.96v4.625c0,29.647,43.358,52.367,102.4,54.739v32.843c-8.675,3.093-15.5,9.918-18.593,18.593
			H143.36v20.48h73.568c4.241,11.894,15.501,20.48,28.833,20.48c13.332,0,24.592-8.586,28.833-20.48h73.567v-20.48h-73.567
			c-3.093-8.675-9.918-15.5-18.593-18.593v-32.843c59.042-2.372,102.4-25.092,102.4-54.739h-20.48
			c0,14.405-35.06,34.495-92.16,34.495s-92.16-20.09-92.16-34.495v-30.293c20.038,13.879,53.142,22.638,92.16,22.638
			s72.122-8.759,92.16-22.638v30.288h20.48v-13.326c12.666,6.279,26.695,9.701,40.96,9.701c50.815,0,92.16-41.345,92.16-92.16
			C491.52,205.19,461.785,168.52,420.635,158.89z M245.76,450.56c5.645,0,10.24,4.595,10.24,10.24c0,5.645-4.595,10.24-10.24,10.24
			s-10.24-4.595-10.24-10.24C235.52,455.155,240.115,450.56,245.76,450.56z M337.92,281.75c0,14.405-35.06,34.5-92.16,34.5
			s-92.16-20.095-92.16-34.5v-30.288c20.038,13.879,53.142,22.638,92.16,22.638s72.122-8.759,92.16-22.638V281.75z M245.76,253.62
			c-57.1,0-92.16-20.095-92.16-34.5c0-14.405,35.06-34.495,92.16-34.495s92.16,20.09,92.16,34.495
			C337.92,233.525,302.86,253.62,245.76,253.62z M399.36,320.275c-14.914,0-28.909-4.668-40.96-13.138V219.12
			c0-31.34-48.425-54.975-112.64-54.975S133.12,187.78,133.12,219.12v100.16H92.16c-42.205,0-71.68-28.49-71.68-69.28
			c0-30.605,18.78-58.22,46.73-68.72l8.705-3.265l-2.415-8.98c-3.88-14.42-3.38-28.77,1.49-42.645
			c9.245-26.32,32.12-45.01,58.28-47.61c23.145-2.275,45.745,7.325,60.445,25.775l13.51,16.955l4.515-21.2
			c9.935-46.64,50.955-79.74,97.16-79.825c50.85,0.415,94.69,43.285,97.725,95.56c0.785,13.565-6,39.29-8.68,48.06l-3.65,11.925
			l12.405,1.26c36.68,3.72,64.34,34.38,64.34,71.305C471.04,288.12,438.885,320.275,399.36,320.275z"/>
	</g>
</g>
<g>
</g>
<g>
</g>
<g>
</g>
<g>
</g>
<g>
</g>
<g>
</g>
<g>
</g>
<g>
</g>
<g>
</g>
<g>
</g>
<g>
</g>
<g>
</g>
<g>
</g>
<g>
</g>
<g>
</g>
</svg>
